<svg width="48" height="48" viewBox="0 0 48 48" fill="none" xmlns="http://www.w3.org/2000/svg">
<path d="M32 22C32.5667 22 33.0417 21.8083 33.425 21.425C33.8083 21.0417 34 20.5667 34 20C34 19.4333 33.8083 18.9583 33.425 18.575C33.0417 18.1917 32.5667 18 32 18C31.4333 18 30.9583 18.1917 30.575 18.575C30.1917 18.9583 30 19.4333 30 20C30 20.5667 30.1917 21.0417 30.575 21.425C30.9583 21.8083 31.4333 22 32 22ZM16 17H26V14H16V17ZM9 42C7.86667 38.2 6.75 34.4083 5.65 30.625C4.55 26.8417 4 22.9667 4 19C4 15.9333 5.06667 13.3333 7.2 11.2C9.33333 9.06667 11.9333 8 15 8H25C25.9667 6.73333 27.1417 5.75 28.525 5.05C29.9083 4.35 31.4 4 33 4C33.8333 4 34.5417 4.29167 35.125 4.875C35.7083 5.45833 36 6.16667 36 7C36 7.2 35.975 7.4 35.925 7.6C35.875 7.8 35.8167 7.98333 35.75 8.15C35.6167 8.51667 35.4917 8.89167 35.375 9.275C35.2583 9.65833 35.1667 10.05 35.1 10.45L39.65 15H44V28.95L38.35 30.8L35 42H24V38H20V42H9ZM11.25 39H17V35H27V39H32.75L35.9 28.5L41 26.75V18H38.4L32 11.6C32.0333 10.7667 32.1417 9.95833 32.325 9.175C32.5083 8.39167 32.7 7.6 32.9 6.8C31.6333 7.13333 30.4333 7.625 29.3 8.275C28.1667 8.925 27.3 9.83333 26.7 11H15C12.7905 11 10.9047 11.7809 9.34285 13.3428C7.78095 14.9047 7 16.7905 7 19C7 22.4386 7.48333 25.7983 8.45 29.079C9.41667 32.3597 10.35 35.6667 11.25 39Z" fill="black"/>
</svg>
