<svg width="48" height="48" viewBox="0 0 48 48" fill="none" xmlns="http://www.w3.org/2000/svg">
<path d="M7 44C6.2 44 5.5 43.7 4.9 43.1C4.3 42.5 4 41.8 4 41V17C4 16.2 4.3 15.5 4.9 14.9C5.5 14.3 6.2 14 7 14H19.5V7C19.5 6.2 19.8 5.5 20.4 4.9C21 4.3 21.7069 4 22.5206 4H25.4795C26.2931 4 27 4.3 27.6 4.9C28.2 5.5 28.5 6.2 28.5 7V14H41C41.8 14 42.5 14.3 43.1 14.9C43.7 15.5 44 16.2 44 17V41C44 41.8 43.7 42.5 43.1 43.1C42.5 43.7 41.8 44 41 44H7ZM7 41H41V17H28.5V18.5C28.5 19.4333 28.2 20.1667 27.6 20.7C27 21.2333 26.2931 21.5 25.4795 21.5H22.5206C21.7069 21.5 21 21.2333 20.4 20.7C19.8 20.1667 19.5 19.4333 19.5 18.5V17H7V41ZM11.6 35.65H23.55V34.95C23.55 34.35 23.4 33.8167 23.1 33.35C22.8 32.8833 22.4167 32.5667 21.95 32.4C20.8833 32.0333 20.05 31.7917 19.45 31.675C18.85 31.5583 18.2667 31.5 17.7 31.5C17.0667 31.5 16.3917 31.575 15.675 31.725C14.9583 31.875 14.15 32.1 13.25 32.4C12.75 32.5667 12.35 32.8833 12.05 33.35C11.75 33.8167 11.6 34.35 11.6 34.95V35.65ZM28.4 32.3H36.9V29.8H28.4V32.3ZM17.7 29.8C18.45 29.8 19.0875 29.5375 19.6125 29.0125C20.1375 28.4875 20.4 27.85 20.4 27.1C20.4 26.35 20.1375 25.7125 19.6125 25.1875C19.0875 24.6625 18.45 24.4 17.7 24.4C16.95 24.4 16.3125 24.6625 15.7875 25.1875C15.2625 25.7125 15 26.35 15 27.1C15 27.85 15.2625 28.4875 15.7875 29.0125C16.3125 29.5375 16.95 29.8 17.7 29.8ZM28.4 26.65H36.9V24.15H28.4V26.65ZM22.5 18.5H25.5V7H22.5V18.5Z" fill="black"/>
</svg>
