<svg width="48" height="48" viewBox="0 0 48 48" fill="none" xmlns="http://www.w3.org/2000/svg">
<path d="M24 46C20.2667 46 16.6667 44.9 13.2 42.7C9.73333 40.5 7 37.9833 5 35.15V42H2V30H14V33H7.15C8.85 35.5667 11.275 37.875 14.425 39.925C17.575 41.975 20.7667 43 24 43C26.6 43 29.0583 42.5 31.375 41.5C33.6917 40.5 35.7083 39.1417 37.425 37.425C39.1417 35.7083 40.5 33.6917 41.5 31.375C42.5 29.0583 43 26.6 43 24H46C46 27.0333 45.425 29.8833 44.275 32.55C43.125 35.2167 41.55 37.55 39.55 39.55C37.55 41.55 35.2167 43.125 32.55 44.275C29.8833 45.425 27.0333 46 24 46ZM2 24C2 20.9667 2.575 18.1167 3.725 15.45C4.875 12.7833 6.45 10.45 8.45 8.45C10.45 6.45 12.7833 4.875 15.45 3.725C18.1167 2.575 20.9667 2 24 2C27.7333 2 31.3333 3.1 34.8 5.3C38.2667 7.5 41 10.0167 43 12.85V6H46V18H34V15H40.85C39.15 12.4333 36.7333 10.125 33.6 8.075C30.4667 6.025 27.2667 5 24 5C21.4 5 18.9417 5.5 16.625 6.5C14.3083 7.5 12.2917 8.85833 10.575 10.575C8.85833 12.2917 7.5 14.3083 6.5 16.625C5.5 18.9417 5 21.4 5 24H2Z" fill="black"/>
<path d="M21.4757 34L21.1521 31.0227C20.8501 30.9795 20.5372 30.8824 20.2136 30.7314C19.89 30.5804 19.6095 30.397 19.3722 30.1812L16.8479 31.2492L14 26.589L16.4595 24.9709C16.3517 24.6041 16.2977 24.2805 16.2977 24C16.2977 23.7195 16.3517 23.3959 16.4595 23.0291L14 21.411L16.8479 16.7508L19.3722 17.8188C19.6095 17.603 19.89 17.4196 20.2136 17.2686C20.5372 17.1176 20.8501 17.0205 21.1521 16.9773L21.4782 14H26.9126L27.2362 16.9773C27.5383 17.0205 27.8511 17.1176 28.1748 17.2686C28.4984 17.4196 28.7789 17.603 29.0162 17.8188L31.5405 16.7508L34.3883 21.411L31.9288 23.0291C32.0367 23.3959 32.0906 23.7195 32.0906 24C32.0906 24.2805 32.0367 24.6041 31.9288 24.9709L34.3883 26.589L31.5405 31.2492L29.0162 30.1812C28.7789 30.397 28.4984 30.5804 28.1748 30.7314C27.8511 30.8824 27.5383 30.9795 27.2362 31.0227L26.9102 34H21.4757ZM24.1942 27.7217C25.2729 27.7217 26.1629 27.3711 26.8641 26.6699C27.5653 25.9687 27.9159 25.0787 27.9159 24C27.9159 22.9213 27.5653 22.0313 26.8641 21.3301C26.1629 20.6289 25.2729 20.2783 24.1942 20.2783C23.1154 20.2783 22.2255 20.6289 21.5243 21.3301C20.8231 22.0313 20.4725 22.9213 20.4725 24C20.4725 25.0787 20.8231 25.9687 21.5243 26.6699C22.2255 27.3711 23.1154 27.7217 24.1942 27.7217ZM24.1942 25.7799C23.6764 25.7799 23.2503 25.6127 22.9159 25.2783C22.5814 24.9439 22.4142 24.5178 22.4142 24C22.4142 23.4822 22.5814 23.0561 22.9159 22.7217C23.2503 22.3873 23.6764 22.2201 24.1942 22.2201C24.712 22.2201 25.1381 22.3873 25.4725 22.7217C25.8069 23.0561 25.9741 23.4822 25.9741 24C25.9741 24.5178 25.8069 24.9439 25.4725 25.2783C25.1381 25.6127 24.712 25.7799 24.1942 25.7799ZM23.0939 32.0583H25.2945L25.5534 29.5987C26.1791 29.4477 26.7508 29.2319 27.2686 28.9515C27.7864 28.671 28.2585 28.3042 28.685 27.8511L30.7961 28.7896L31.8641 27.1068L29.8576 25.6828C30.0949 25.1435 30.2136 24.5825 30.2136 24C30.2136 23.4175 30.0949 22.8565 29.8576 22.3172L31.8641 20.8932L30.7961 19.2104L28.685 20.1489C28.2585 19.6958 27.7864 19.329 27.2686 19.0485C26.7508 18.7681 26.1791 18.5523 25.5534 18.4013L25.2945 15.9417H23.0939L22.835 18.4013C22.2093 18.5523 21.6375 18.7681 21.1197 19.0485C20.6019 19.329 20.1298 19.6958 19.7033 20.1489L17.5922 19.2104L16.5243 20.8932L18.5307 22.3172C18.2934 22.8565 18.1748 23.4175 18.1748 24C18.1748 24.5825 18.2934 25.1435 18.5307 25.6828L16.5243 27.1068L17.5922 28.7896L19.7033 27.8511C20.1298 28.3042 20.6019 28.671 21.1197 28.9515C21.6375 29.2319 22.2093 29.4477 22.835 29.5987L23.0939 32.0583Z" fill="black"/>
</svg>
