<svg width="48" height="48" viewBox="0 0 48 48" fill="none" xmlns="http://www.w3.org/2000/svg">
<path d="M11.2059 39.95C9.56863 39.95 8.175 39.3764 7.025 38.2292C5.875 37.082 5.3 35.6889 5.3 34.05H2V11C2 10.2 2.3 9.5 2.9 8.9C3.5 8.3 4.2 8 5 8H33.95V16.35H39.2L46 25.4V34.05H42.45C42.45 35.6889 41.877 37.082 40.7309 38.2292C39.5848 39.3764 38.1931 39.95 36.5559 39.95C34.9186 39.95 33.525 39.3764 32.375 38.2292C31.225 37.082 30.65 35.6889 30.65 34.05H17.1C17.1 35.6833 16.527 37.075 15.3809 38.225C14.2348 39.375 12.8431 39.95 11.2059 39.95ZM11.2 36.95C12 36.95 12.6833 36.6667 13.25 36.1C13.8167 35.5333 14.1 34.85 14.1 34.05C14.1 33.25 13.8167 32.5667 13.25 32C12.6833 31.4333 12 31.15 11.2 31.15C10.4 31.15 9.71667 31.4333 9.15 32C8.58333 32.5667 8.3 33.25 8.3 34.05C8.3 34.85 8.58333 35.5333 9.15 36.1C9.71667 36.6667 10.4 36.95 11.2 36.95ZM5 31.05H6.1C6.66667 30.15 7.38402 29.4333 8.25205 28.9C9.12008 28.3667 10.0868 28.1 11.1521 28.1C12.2174 28.1 13.1917 28.375 14.075 28.925C14.9583 29.475 15.6833 30.1833 16.25 31.05H30.95V11H5V31.05ZM36.55 36.95C37.35 36.95 38.0333 36.6667 38.6 36.1C39.1667 35.5333 39.45 34.85 39.45 34.05C39.45 33.25 39.1667 32.5667 38.6 32C38.0333 31.4333 37.35 31.15 36.55 31.15C35.75 31.15 35.0667 31.4333 34.5 32C33.9333 32.5667 33.65 33.25 33.65 34.05C33.65 34.85 33.9333 35.5333 34.5 36.1C35.0667 36.6667 35.75 36.95 36.55 36.95ZM33.95 26.75H43.25L37.7 19.35H33.95V26.75Z" fill="white"/>
</svg>
