<svg width="48" height="48" viewBox="0 0 48 48" fill="none" xmlns="http://www.w3.org/2000/svg">
<path d="M7.5 41.5C5.97223 41.5 4.67362 40.9653 3.60415 39.8958C2.53472 38.8264 2 37.5278 2 36C2 35.1808 2.175 34.401 2.525 33.6606C2.875 32.9202 3.36667 32.2833 4 31.75V22H8V10H23.4L32.7 31.8C32.9333 32.3 33.125 32.8159 33.275 33.3477C33.425 33.8794 33.5 34.4302 33.5 35C33.5 36.7952 32.8655 38.3274 31.5965 39.5965C30.3274 40.8655 28.7952 41.5 27 41.5C25.7079 41.5 24.5182 41.1333 23.4309 40.4C22.3436 39.6667 21.5333 38.7 21 37.5H12.8C12.4667 38.6667 11.8083 39.625 10.825 40.375C9.84167 41.125 8.73333 41.5 7.5 41.5ZM37 39.5V8H40V36.5H46V39.5H37ZM7.49125 38.5C8.19708 38.5 8.79167 38.2612 9.275 37.7838C9.75833 37.3063 10 36.7146 10 36.0087C10 35.3029 9.76125 34.7083 9.28375 34.225C8.80628 33.7417 8.21462 33.5 7.50875 33.5C6.80292 33.5 6.20833 33.7388 5.725 34.2163C5.24167 34.6937 5 35.2854 5 35.9913C5 36.6971 5.23875 37.2917 5.71625 37.775C6.19372 38.2583 6.78538 38.5 7.49125 38.5ZM26.9941 38.5C27.9647 38.5 28.7917 38.1603 29.475 37.4809C30.1583 36.8015 30.5 35.9765 30.5 35.0059C30.5 34.0353 30.1603 33.2083 29.4809 32.525C28.8015 31.8417 27.9765 31.5 27.0059 31.5C26.0353 31.5 25.2083 31.8397 24.525 32.5191C23.8417 33.1985 23.5 34.0235 23.5 34.9941C23.5 35.9647 23.8397 36.7917 24.5191 37.475C25.1985 38.1583 26.0235 38.5 26.9941 38.5ZM12.8 34.5H20.48C20.56 33.9667 20.6833 33.45 20.85 32.95C21.0167 32.45 21.2333 31.9667 21.5 31.5H15.8L9.65 25H7V30.5H7.5C8.73333 30.5 9.84167 30.875 10.825 31.625C11.8083 32.375 12.4667 33.3333 12.8 34.5ZM17.15 28.45H28L21.45 13H11V22L17.15 28.45ZM15.8 31.5L14.85 30.475C14.2167 29.7917 13.5083 29.05 12.725 28.25C11.9417 27.45 11.2333 26.7083 10.6 26.025L9.65 25L15.8 31.5Z" fill="white"/>
</svg>
