<svg width="48" height="48" viewBox="0 0 48 48" fill="none" xmlns="http://www.w3.org/2000/svg">
<path d="M7 44C6.2 44 5.5 43.7 4.9 43.1C4.3 42.5 4 41.8 4 41V32.4H7V41H15.6V44H7ZM4 15.6V7C4 6.2 4.3 5.5 4.9 4.9C5.5 4.3 6.2 4 7 4H15.6V7H7V15.6H4ZM32.4 44V41H41V32.4H44V41C44 41.8 43.7 42.5 43.1 43.1C42.5 43.7 41.8 44 41 44H32.4ZM41 15.6V7H32.4V4H41C41.8 4 42.5 4.3 43.1 4.9C43.7 5.5 44 6.2 44 7V15.6H41ZM24 24C22.3 24 20.875 23.425 19.725 22.275C18.575 21.125 18 19.7 18 18C18 16.3333 18.575 14.9167 19.725 13.75C20.875 12.5833 22.3 12 24 12C25.6667 12 27.0833 12.5833 28.25 13.75C29.4167 14.9167 30 16.3333 30 18C30 19.7 29.4167 21.125 28.25 22.275C27.0833 23.425 25.6667 24 24 24ZM23.9825 21C24.8275 21 25.5417 20.7142 26.125 20.1426C26.7083 19.5709 27 18.8626 27 18.0176C27 17.1725 26.7108 16.4583 26.1325 15.875C25.5541 15.2917 24.8374 15 23.9825 15C23.1275 15 22.4167 15.2892 21.85 15.8676C21.2833 16.4459 21 17.1626 21 18.0176C21 18.8725 21.2858 19.5833 21.8575 20.15C22.4291 20.7167 23.1374 21 23.9825 21ZM12 36V32.2C12 31.3 12.2917 30.5083 12.875 29.825C13.4583 29.1417 14.1667 28.5833 15 28.15C16.4 27.4167 17.849 26.875 19.3471 26.525C20.8452 26.175 22.3952 26 23.9972 26C25.5991 26 27.15 26.175 28.65 26.525C30.15 26.875 31.6 27.4167 33 28.15C33.8333 28.5833 34.5417 29.1417 35.125 29.825C35.7083 30.5083 36 31.3 36 32.2V36H12ZM24 29C22.4151 29 20.8689 29.2167 19.3614 29.65C17.8538 30.0833 16.4 30.7333 15 31.6V33H33V31.6C31.6 30.7333 30.1462 30.0833 28.6387 29.65C27.1311 29.2167 25.5849 29 24 29ZM24 33H33H15H24Z" fill="white"/>
</svg>
