<svg width="48" height="48" viewBox="0 0 48 48" fill="none" xmlns="http://www.w3.org/2000/svg">
<path d="M8.3002 42V37.3H14.6502L9.3502 19.2C8.28353 18.7 7.4502 18.025 6.8502 17.175C6.2502 16.325 5.9502 15.2 5.9502 13.8C5.9502 12.2334 6.5252 10.875 7.6752 9.72502C8.8252 8.57502 10.1835 8.00002 11.7502 8.00002C13.2169 8.00002 14.4335 8.39169 15.4002 9.17502C16.3669 9.95835 17.0169 11 17.3502 12.3H24.6502V9.35002C24.6502 8.95002 24.8002 8.60002 25.1002 8.30002C25.4002 8.00002 25.7502 7.85002 26.1502 7.85002C26.5169 7.85002 26.8252 7.99169 27.0752 8.27502C27.3252 8.55835 27.4502 8.88335 27.4502 9.25002L31.2002 5.65002C31.4669 5.38335 31.8085 5.20835 32.2252 5.12502C32.6419 5.04169 33.0669 5.10002 33.5002 5.30002L41.4002 9.10002C41.7002 9.26669 41.9085 9.50002 42.0252 9.80002C42.1419 10.1 42.1169 10.4167 41.9502 10.75C41.7835 11.0834 41.5419 11.2834 41.2252 11.35C40.9085 11.4167 40.6002 11.3667 40.3002 11.2L32.5502 7.45002L27.6502 12.4V15L32.5502 20.15L40.3002 16.35C40.6335 16.1834 40.9502 16.1417 41.2502 16.225C41.5502 16.3084 41.7835 16.5167 41.9502 16.85C42.1169 17.1834 42.1419 17.5167 42.0252 17.85C41.9085 18.1834 41.6835 18.4334 41.3502 18.6L33.7002 22.2C33.2335 22.4334 32.7835 22.5417 32.3502 22.525C31.9169 22.5084 31.5335 22.3334 31.2002 22L27.4502 18.4C27.4502 18.8667 27.3252 19.2167 27.0752 19.45C26.8252 19.6834 26.5169 19.8 26.1502 19.8C25.7502 19.8 25.4002 19.65 25.1002 19.35C24.8002 19.05 24.6502 18.7 24.6502 18.3V15.3H17.2502C17.2502 15.7 17.1419 16.1084 16.9252 16.525C16.7085 16.9417 16.4502 17.2834 16.1502 17.55L26.4002 37.3H34.3002V42H8.3002ZM11.7502 16.6C12.5502 16.6 13.2169 16.3334 13.7502 15.8C14.2835 15.2667 14.5502 14.6 14.5502 13.8C14.5502 13 14.2835 12.3334 13.7502 11.8C13.2169 11.2667 12.5502 11 11.7502 11C10.9502 11 10.2835 11.2667 9.7502 11.8C9.21686 12.3334 8.9502 13 8.9502 13.8C8.9502 14.6 9.21686 15.2667 9.7502 15.8C10.2835 16.3334 10.9502 16.6 11.7502 16.6ZM17.9502 37.3H23.0502L13.6002 18.95C13.5002 19.0167 13.3335 19.0834 13.1002 19.15C12.8669 19.2167 12.6835 19.2667 12.5502 19.3L17.9502 37.3Z" fill="white"/>
</svg>
