<svg width="48" height="48" viewBox="0 0 48 48" fill="none" xmlns="http://www.w3.org/2000/svg">
<path d="M12 39H25V35.5H12V39ZM13 19.5H23C23.2667 19.5 23.5 19.4 23.7 19.2C23.9 19 24 18.7667 24 18.5C24 18.2333 23.9 18 23.7 17.8C23.5 17.6 23.2667 17.5 23 17.5H13C12.7333 17.5 12.5 17.6 12.3 17.8C12.1 18 12 18.2333 12 18.5C12 18.7667 12.1 19 12.3 19.2C12.5 19.4 12.7333 19.5 13 19.5ZM13 14.5H23C23.2667 14.5 23.5 14.4 23.7 14.2C23.9 14 24 13.7667 24 13.5C24 13.2333 23.9 13 23.7 12.8C23.5 12.6 23.2667 12.5 23 12.5H13C12.7333 12.5 12.5 12.6 12.3 12.8C12.1 13 12 13.2333 12 13.5C12 13.7667 12.1 14 12.3 14.2C12.5 14.4 12.7333 14.5 13 14.5ZM32 22V19H37V13H32V10H37C37.825 10 38.5312 10.2938 39.1188 10.8812C39.7062 11.4688 40 12.175 40 13V14.5H44.5C44.925 14.5 45.2812 14.6438 45.5688 14.9313C45.8563 15.2188 46 15.575 46 16C46 16.4 45.8563 16.75 45.5688 17.05C45.2812 17.35 44.925 17.5 44.5 17.5H40V19C40 19.825 39.7062 20.5312 39.1188 21.1188C38.5312 21.7063 37.825 22 37 22H32ZM24 32.5H21V23H29V9H12C10.6 9 9.41667 9.48333 8.45 10.45C7.48333 11.4167 7 12.6 7 14V18C7 19.4 7.48333 20.5833 8.45 21.55C9.41667 22.5167 10.6 23 12 23H16V32.5H13V26H12C9.8 26 7.91667 25.2167 6.35 23.65C4.78333 22.0833 4 20.2 4 18V14C4 11.8 4.78333 9.91667 6.35 8.35C7.91667 6.78333 9.8 6 12 6H29C29.825 6 30.5312 6.29375 31.1187 6.88125C31.7063 7.46875 32 8.175 32 9V23C32 23.825 31.7063 24.5312 31.1187 25.1187C30.5312 25.7063 29.825 26 29 26H24V32.5ZM11.25 42C10.625 42 10.0938 41.7812 9.65625 41.3438C9.21875 40.9062 9 40.375 9 39.75V34.75C9 34.125 9.21875 33.5938 9.65625 33.1562C10.0938 32.7188 10.625 32.5 11.25 32.5H25.75C26.375 32.5 26.9062 32.7188 27.3438 33.1562C27.7812 33.5938 28 34.125 28 34.75V39.75C28 40.375 27.7812 40.9062 27.3438 41.3438C26.9062 41.7812 26.375 42 25.75 42H11.25Z" fill="white"/>
</svg>
