<svg width="48" height="48" viewBox="0 0 48 48" fill="none" xmlns="http://www.w3.org/2000/svg">
<g clip-path="url(#clip0_684_526)">
<path d="M2.85 40C2.06623 40 1.3953 39.7062 0.8372 39.1188C0.279067 38.5312 0 37.825 0 37H7.05C6.25 37 5.55 36.7 4.95 36.1C4.35 35.5 4.05 34.8 4.05 34V9C4.05 8.2 4.35 7.5 4.95 6.9C5.55 6.3 6.25 6 7.05 6H40.95C41.75 6 42.45 6.3 43.05 6.9C43.65 7.5 43.95 8.2 43.95 9V34C43.95 34.8 43.65 35.5 43.05 36.1C42.45 36.7 41.75 37 40.95 37H48C48 37.8333 47.7062 38.5417 47.1188 39.125C46.5312 39.7083 45.825 40 45 40H2.85ZM24 38.9C24.4817 38.9 24.8854 38.7371 25.2113 38.4113C25.5371 38.0854 25.7 37.6817 25.7 37.2C25.7 36.7183 25.5371 36.3146 25.2113 35.9888C24.8854 35.6629 24.4817 35.5 24 35.5C23.5183 35.5 23.1146 35.6629 22.7887 35.9888C22.4629 36.3146 22.3 36.7183 22.3 37.2C22.3 37.6817 22.4629 38.0854 22.7887 38.4113C23.1146 38.7371 23.5183 38.9 24 38.9ZM7.05 34H40.95V9H7.05V34Z" fill="white"/>
</g>
<defs>
<clipPath id="clip0_684_526">
<rect width="48" height="48" fill="white"/>
</clipPath>
</defs>
</svg>
